<svg 
 xmlns="http://www.w3.org/2000/svg"
 xmlns:xlink="http://www.w3.org/1999/xlink"
 width="25px" height="17px">
<path fill-rule="evenodd"  fill="rgb(252, 177, 177)"
 d="M24.779,15.785 L17.197,8.499 L24.779,1.214 C24.916,1.491 24.999,1.797 24.999,2.124 L24.999,14.874 C24.999,15.201 24.916,15.508 24.779,15.785 ZM10.946,9.537 L1.255,0.212 C1.542,0.79 1.858,0.0 2.197,0.0 L22.802,0.0 C23.140,0.0 23.457,0.79 23.744,0.212 L14.53,9.537 C13.196,10.365 11.803,10.365 10.946,9.537 ZM0.220,15.785 C0.83,15.508 0.0,15.201 0.0,14.874 L0.0,2.124 C0.0,1.797 0.83,1.491 0.220,1.214 L7.802,8.499 L0.220,15.785 ZM9.910,10.539 C11.338,11.919 13.661,11.919 15.89,10.539 L16.161,9.501 L23.744,16.786 C23.457,16.919 23.140,16.999 22.802,16.999 L2.197,16.999 C1.858,16.999 1.542,16.919 1.255,16.786 L8.837,9.501 L9.910,10.539 Z"/>
</svg>