<svg xmlns="http://www.w3.org/2000/svg" width="21" height="21" viewBox="0 0 21 21">
  <defs>
    <style>
      .cls-1 {
        fill: #fcb1b1;
        fill-rule: evenodd;
      }
    </style>
  </defs>
  <path id="Forma_1" data-name="Forma 1" class="cls-1" d="M1521.31,99.784a11.926,11.926,0,0,1-3.74-.6,1.7,1.7,0,0,0-1.66.351l-2.37,1.783a13.071,13.071,0,0,1-5.86-5.866l1.73-2.3a1.7,1.7,0,0,0,.42-1.72,11.861,11.861,0,0,1-.6-3.751A1.691,1.691,0,0,0,1507.54,86h-3.86a1.688,1.688,0,0,0-1.68,1.685A19.332,19.332,0,0,0,1521.31,107a1.691,1.691,0,0,0,1.69-1.685v-3.846A1.691,1.691,0,0,0,1521.31,99.784Z" transform="translate(-1502 -86)"/>
</svg>
