<svg xmlns="http://www.w3.org/2000/svg" width="50" height="44" viewBox="0 0 50 44">
  <defs>
    <style>
      .cls-1 {
        fill: #c09292;
        fill-rule: evenodd;
        opacity: 0.2;
      }
    </style>
  </defs>
  <path id="кавыычки" class="cls-1" d="M588.01,470.876a11.9,11.9,0,1,0,11.9-12.124,11.661,11.661,0,0,0-3.855.663c2.679-15.647,14.659-25.737,3.553-17.433-12.313,9.209-11.613,28.524-11.6,28.877C588.011,470.865,588.01,470.87,588.01,470.876Zm26.185,0a11.9,11.9,0,1,0,11.9-12.124,11.656,11.656,0,0,0-3.855.663c2.678-15.647,14.658-25.737,3.553-17.433-12.314,9.209-11.613,28.524-11.6,28.877v0.017Z" transform="translate(-588 -439)"/>
</svg>
